<svg xmlns="http://www.w3.org/2000/svg" width="649.9999" height="797.925" viewBox="0 0 26 31.917"><defs><path id="a" d="M266.6667 437.1585h314.7541V568.306H266.6667z"/></defs><path d="M24.001 4.918h-5.975V3c0-1.655-1.346-3-3-3h-3.989c-1.655 0-3 1.345-3 3v1.918H2c-1.104 0-2 .896-2 2v22.999c0 1.105.896 2 2 2h22c1.105 0 2-.895 2-2V6.918c0-1.104-.895-2-2-2zM10.038 3c0-.552.448-1 1-1h3.989c.552 0 1 .448 1 1v1.918h-5.989Zm13.963 26.917h-22V6.918h6.037v2.058s-.027.999.994.999c1.125 0 1.006-.999 1.006-.999V6.918h5.989v2.058s-.067 1.004.996 1.004c1 0 1.004-1.004 1.004-1.004V6.918h5.974z"/><text xml:space="preserve" style="font-style:italic;font-variant:normal;font-weight:400;font-stretch:normal;font-size:85.3333px;font-family:&quot;Courier New&quot;;-inkscape-font-specification:&quot;Courier New Italic&quot;;white-space:pre;shape-inside:url(#a);opacity:.92;fill:#000;stroke:#000;stroke-width:2.64567" transform="matrix(.04629 0 0 .10886 -5.6533 -33.2583)"><tspan x="266.666" y="513.0859">HAZINA</tspan></text></svg>