<?xml version="1.0" encoding="UTF-8" standalone="no"?>
<!-- Uploaded to: SVG Repo, www.svgrepo.com, Generator: SVG Repo Mixer Tools -->

<svg
   fill="#000000"
   width="800px"
   height="800px"
   viewBox="0 0 32 32"
   version="1.1"
   id="svg1"
   sodipodi:docname="bag-svgrepo-com.svg"
   inkscape:export-filename="hazina-logo.svg"
   inkscape:export-xdpi="96"
   inkscape:export-ydpi="96"
   inkscape:version="1.3.2 (091e20e, 2023-11-25, custom)"
   xmlns:inkscape="http://www.inkscape.org/namespaces/inkscape"
   xmlns:sodipodi="http://sodipodi.sourceforge.net/DTD/sodipodi-0.dtd"
   xmlns="http://www.w3.org/2000/svg"
   xmlns:svg="http://www.w3.org/2000/svg">
  <defs
     id="defs1">
    <rect
       x="266.66667"
       y="437.15847"
       width="314.7541"
       height="131.14754"
       id="rect1" />
  </defs>
  <sodipodi:namedview
     id="namedview1"
     pagecolor="#ffffff"
     bordercolor="#000000"
     borderopacity="0.25"
     inkscape:showpageshadow="2"
     inkscape:pageopacity="0.0"
     inkscape:pagecheckerboard="0"
     inkscape:deskcolor="#d1d1d1"
     inkscape:zoom="0.68625"
     inkscape:cx="400"
     inkscape:cy="190.16393"
     inkscape:window-width="1366"
     inkscape:window-height="745"
     inkscape:window-x="-8"
     inkscape:window-y="-8"
     inkscape:window-maximized="1"
     inkscape:current-layer="svg1" />
  <path
     d="M27 4.96h-5.975v-1.918c0-1.655-1.346-3-3-3h-3.989c-1.655 0-3 1.345-3 3v1.918h-6.037c-1.104 0-2 0.896-2 2v22.999c0 1.105 0.896 2 2 2h22c1.105 0 2-0.895 2-2v-22.999c0-1.104-0.895-2-2-2h0zM13.037 3.042c0-0.552 0.448-1 1-1h3.989c0.552 0 1 0.448 1 1v1.918h-5.989v-1.918zM27 29.959h-22v-22.999h6.037v2.058s-0.027 0.999 0.994 0.999c1.125 0 1.006-0.999 1.006-0.999v-2.058h5.989v2.058s-0.067 1.004 0.996 1.004c1 0 1.004-1.004 1.004-1.004v-2.058h5.974v22.999z"
     id="path1" />
  <text
     xml:space="preserve"
     transform="matrix(0.04628642,0,0,0.10886167,-2.6543085,-33.216287)"
     id="text1"
     style="font-style:italic;font-variant:normal;font-weight:normal;font-stretch:normal;font-size:85.3333px;font-family:'Courier New';-inkscape-font-specification:'Courier New Italic';white-space:pre;shape-inside:url(#rect1);opacity:0.92;fill:#000000;stroke:#000000;stroke-width:2.64567"><tspan
       x="266.66602"
       y="513.08586"
       id="tspan2">HAZINA</tspan></text>
</svg>
