<?xml version="1.0" encoding="utf-8"?>
<!-- Uploaded to: SVG Repo, www.svgrepo.com, Generator: SVG Repo Mixer Tools -->
<svg fill="#000000" width="800px" height="800px" viewBox="-13.57 0 65.148 65.148" xmlns="http://www.w3.org/2000/svg">
  <g id="_35" data-name="35" transform="translate(-295.999 -1082.927)">
    <path id="Path_134" data-name="Path 134" d="M307.427,1116.274c-.355-1.459-.716-2.787-1.069-3.836-.049-.145-.1-.254-.146-.391l.008-2.478h.1a1.758,1.758,0,0,0,1.9-1.561l.043-19.056s0-1.038-.034-1.393a10.026,10.026,0,0,0-.241-1.423,3.014,3.014,0,0,0-2.727-2.335,3.12,3.12,0,0,0-2.833,2.235,5.345,5.345,0,0,0-.178.87c-.039.509-.081,1.31-.081,1.31l-.048,19.776a1.652,1.652,0,0,0,1.473,1.5l-.005,2.827,0,.784c-.789,1.541-2.1,4.211-3.408,7.42-2.08,5.087-4.167,11.5-4.185,16.879a12.98,12.98,0,0,0,1.263,6.064,7.9,7.9,0,0,0,4.486,3.841,7.732,7.732,0,0,0,1.324.346,2.8,2.8,0,0,0,.548.212c.108.03.257.032.381.053l.005.005a.951.951,0,0,0,.49.151.836.836,0,0,0,.329-.1,2.711,2.711,0,0,0,1.175-.364,10.079,10.079,0,0,0,3.822-1.529c2.169-1.438,4.128-4.251,4.131-9.206C313.965,1132.188,312.257,1125.57,307.427,1116.274Zm.344,4.144c.863,4.14,1.586,8.35,1.866,10.012.074.448.117.711.122.741a54.5,54.5,0,0,1,.594,6.822,11.76,11.76,0,0,1-1.351,6.079,6.907,6.907,0,0,1-1.553,1.732,11.015,11.015,0,0,0,.9-4.741c.005-.82-.039-1.628-.072-2.393-.15-3.314-.377-6.6-.825-9.9-.433-3.169-.989-6.316-1.574-9.456-.111-1.708-.236-3.491-.381-5.4.47.848.956,1.71,1.376,2.514C307.177,1117.693,307.483,1119.027,307.771,1120.418Zm-2.123,26.458a7.623,7.623,0,0,0,.3-1.042,45.932,45.932,0,0,0,.621-8.924c.008-3.177-.109-7.28-.386-12.465.241,1.465.5,2.928.707,4.4.443,3.275.673,6.546.82,9.849.034.771.073,1.57.071,2.369a9.1,9.1,0,0,1-1.385,5.458A5.31,5.31,0,0,1,305.648,1146.876Zm.356-9.971c-.012,5.975-.458,8.785-.943,9.928a2.09,2.09,0,0,1-.109.2,4.439,4.439,0,0,1-.81.132s-.007-.005-.014,0c-.038,0-.078-.015-.116-.018-.071-.091-.126-.174-.14-.194v0l-.022-.033-.024-.03a1.557,1.557,0,0,1-.29-.672,9.655,9.655,0,0,1-.233-1.433c-.122-1.171-.171-2.735-.169-4.548.019-7.075.863-17.95,1.45-24.7q.372,1.923.728,3.852C305.816,1127.092,306.014,1132.775,306,1136.905Zm-1.167-23.058-.072-.371,0-.005.124,0c.03.369.053.722.08,1.083C304.926,1114.323,304.884,1114.084,304.837,1113.847Zm-.77,1.081c-.59,6.692-1.48,17.992-1.5,25.31a28.746,28.746,0,0,0,.42,6.121,2.331,2.331,0,0,0,.315.7c-.047-.011-.1-.009-.145-.021a4.9,4.9,0,0,1-1.722-2.49,15.28,15.28,0,0,1-.711-3.339,26.12,26.12,0,0,1-.167-3.182c0-1.359.079-2.719.147-4.079a87.485,87.485,0,0,1,1.33-10.165c.346-2.061.716-4.113,1.131-6.152C303.461,1116.728,303.733,1115.823,304.067,1114.928Zm-2.592,8.761a88.218,88.218,0,0,0-1.337,10.23c-.067,1.359-.14,2.728-.145,4.107a27.014,27.014,0,0,0,.166,3.25,16,16,0,0,0,.743,3.461,7.452,7.452,0,0,0,.668,1.394,5.3,5.3,0,0,1-1.062-1.278,13.938,13.938,0,0,1-1.687-7.226c.013-4.48,1.355-9.317,2.322-13.069.156-.606.332-1.193.493-1.789C301.582,1123.076,301.525,1123.383,301.475,1123.689Zm4.424-10.213h.186c.07.232.141.469.213.72C306.165,1113.958,306.037,1113.719,305.9,1113.476Zm-.672-27.836c.58,0,1.049.652,1.047,1.456s-.472,1.452-1.051,1.452-1.048-.653-1.046-1.456S304.649,1085.64,305.227,1085.64Zm-7.465,57.566a12.435,12.435,0,0,1-1.2-5.8c.01-4.582,1.59-10.04,3.37-14.716,1.059-2.788,2.185-5.285,3.091-7.175-.15.655-.272,1.313-.406,1.969-.745,2.292-1.421,4.592-2.022,6.932-.965,3.75-2.329,8.622-2.342,13.211a14.53,14.53,0,0,0,1.764,7.515,6.155,6.155,0,0,0,.855,1.14A7.2,7.2,0,0,1,297.762,1143.206Zm11.746,2.4a9.733,9.733,0,0,1-2.292,1.116,7.66,7.66,0,0,0,2.271-2.359,12.3,12.3,0,0,0,1.432-6.373,55.027,55.027,0,0,0-.6-6.9v-.01s-.53-3.3-1.291-7.266c-.319-1.666-.678-3.448-1.052-5.161,3.973,8.124,5.427,14.034,5.413,18.217C313.373,1141.686,311.519,1144.268,309.508,1145.609Z"/>
    <path id="Path_135" data-name="Path 135" d="M333.938,1098.082a1.645,1.645,0,0,0,.061-.283c.015-1.43-2.1-2.652-4.918-2.962l1.2-9.776a2.373,2.373,0,0,0-2.144-2.134,1.927,1.927,0,0,0-1.071.337.648.648,0,0,0-.076.049,2.572,2.572,0,0,0-.487.445,1.053,1.053,0,0,0-.07.092,2.336,2.336,0,0,0-.323.527.843.843,0,0,0-.028.081,1.532,1.532,0,0,0-.126.551l.79,9.794c-2.91.2-5.141,1.381-5.156,2.839a1.427,1.427,0,0,0,.064.329l-.008-.026c-.013-.081-.051-.157-.056-.234l0,0,0,.208c0,.009,0,.019,0,.024l0,.014-.254,19.9c-.091,5.952-.167,11.479-.172,13.555l-.011.835h.021c-.01.067-.016.134-.021.2-.014,1.418,2.068,2.627,4.859,2.952l-1.137,9.635a1.647,1.647,0,0,0,.107.555c.01.027.015.057.027.083a2.654,2.654,0,0,0,.3.533c.023.034.051.07.073.1a2.59,2.59,0,0,0,.467.458.458.458,0,0,0,.081.054,1.914,1.914,0,0,0,1.052.376,2.373,2.373,0,0,0,2.216-2.055l-.834-9.692c2.931-.2,5.182-1.377,5.2-2.847a1.324,1.324,0,0,0-.017-.2l.017-.005.437-34.537-.005-.005A1.367,1.367,0,0,1,333.938,1098.082Zm-6.181,2.6a12.108,12.108,0,0,0,1.232-.045.034.034,0,0,1-.016.005c-.393.03-.8.046-1.216.04a12.138,12.138,0,0,1-1.225-.076h-.016A12.424,12.424,0,0,0,327.757,1100.679Zm6.039-2.175c-.024.046-.067.091-.1.136.036-.05.076-.1.1-.152C333.8,1098.493,333.8,1098.5,333.8,1098.5Zm-.554.658c.057-.05.117-.095.169-.146a.072.072,0,0,1-.011.015C333.354,1099.077,333.291,1099.117,333.242,1099.162Zm-.432.34c-.066.044-.148.08-.218.122l-.013.005c.081-.045.173-.088.244-.137C332.82,1099.5,332.815,1099.5,332.81,1099.5Zm-.759.406c-.091.04-.2.071-.289.109-.015.007-.035.013-.047.018.116-.046.245-.087.354-.137C332.061,1099.9,332.057,1099.908,332.051,1099.908Zm-.907.335c-.122.034-.258.062-.383.091-.038.01-.078.019-.119.028.175-.043.358-.079.522-.13C331.159,1100.237,331.149,1100.237,331.144,1100.243Zm-1.032.244c-.173.033-.362.049-.543.071l-.2.027c.259-.027.52-.058.765-.1C330.124,1100.481,330.12,1100.487,330.112,1100.487Zm-3.861.077c-.291-.042-.583-.083-.857-.138l-.025-.008c.316.069.651.118,1,.159C326.325,1100.572,326.289,1100.567,326.251,1100.564Zm-1.273-.248c-.208-.052-.421-.1-.614-.165-.01,0-.02-.009-.03-.012.239.079.5.144.759.2C325.054,1100.337,325.016,1100.324,324.978,1100.316Zm-1.1-.352c-.137-.056-.286-.106-.415-.167a.288.288,0,0,0-.029-.015c.165.076.353.147.537.218A.871.871,0,0,0,323.883,1099.964Zm-.9-.441c-.084-.05-.182-.1-.263-.152a.115.115,0,0,0-.023-.02c.1.073.233.141.355.21C323.031,1099.548,323.008,1099.538,322.985,1099.523Zm-.669-.492c-.053-.052-.122-.1-.173-.149,0-.008-.007-.013-.012-.025a1.931,1.931,0,0,0,.225.2C322.344,1099.051,322.326,1099.041,322.316,1099.031Zm-.426-.506-.02-.027a1.74,1.74,0,0,1-.1-.154.109.109,0,0,1-.008-.029A1.675,1.675,0,0,0,321.89,1098.525Z"/>
  </g>
</svg>